<svg width="28" height="28" viewBox="0 0 28 28" fill="none" xmlns="http://www.w3.org/2000/svg">
<circle cx="14" cy="14" r="13" fill="white" stroke="#888888" stroke-width="2"/>
<path d="M21.9072 20.646L17.8037 12.0411C17.7306 11.8881 17.6184 11.7594 17.4795 11.6695C17.3407 11.5795 17.1807 11.5319 17.0174 11.5319C16.8542 11.5319 16.6942 11.5795 16.5554 11.6695C16.4165 11.7594 16.3043 11.8881 16.2312 12.0411L14.7275 15.1911C13.7145 15.0982 12.7391 14.7443 11.8881 14.1608C12.9222 12.8998 13.5692 11.3408 13.7442 9.6878H15.2588C15.492 9.6878 15.7157 9.59067 15.8806 9.41777C16.0455 9.24487 16.1381 9.01037 16.1381 8.76585C16.1381 8.52134 16.0455 8.28683 15.8806 8.11393C15.7157 7.94104 15.492 7.8439 15.2588 7.8439H11.4484V6.92195C11.4484 6.67743 11.3557 6.44293 11.1908 6.27003C11.0259 6.09713 10.8023 6 10.5691 6C10.3359 6 10.1122 6.09713 9.94728 6.27003C9.78238 6.44293 9.68974 6.67743 9.68974 6.92195V7.8439H5.87933C5.64611 7.8439 5.42245 7.94104 5.25755 8.11393C5.09264 8.28683 5 8.52134 5 8.76585C5 9.01037 5.09264 9.24487 5.25755 9.41777C5.42245 9.59067 5.64611 9.6878 5.87933 9.6878H11.9709C11.8059 10.8894 11.3199 12.0174 10.5691 12.9415C10.2027 12.492 9.89691 11.9917 9.66043 11.4549C9.61411 11.342 9.54672 11.2399 9.46223 11.1547C9.37775 11.0695 9.27786 11.0029 9.16845 10.9587C9.05904 10.9146 8.94232 10.8938 8.82515 10.8976C8.70798 10.9015 8.59272 10.9299 8.48616 10.9811C8.3796 11.0323 8.28388 11.1054 8.20464 11.1959C8.1254 11.2865 8.06423 11.3928 8.02473 11.5085C7.98523 11.6243 7.96821 11.7471 7.97465 11.8698C7.98109 11.9926 8.01088 12.1127 8.06225 12.2232C8.36985 12.9246 8.76968 13.5773 9.25007 14.1623C8.24936 14.853 7.07737 15.2205 5.87933 15.2195C5.64611 15.2195 5.42245 15.3166 5.25755 15.4895C5.09264 15.6624 5 15.8969 5 16.1415C5 16.386 5.09264 16.6205 5.25755 16.7934C5.42245 16.9663 5.64611 17.0634 5.87933 17.0634C7.56766 17.0648 9.21174 16.4973 10.5691 15.4446C11.5534 16.2041 12.6916 16.7152 13.8951 16.9382L12.1269 20.646C12.072 20.7546 12.0383 20.8736 12.0279 20.9961C12.0174 21.1185 12.0305 21.2419 12.0662 21.359C12.1019 21.4761 12.1597 21.5845 12.236 21.6779C12.3122 21.7713 12.4056 21.8477 12.5105 21.9027C12.6153 21.9577 12.7297 21.9901 12.8467 21.9981C12.9637 22.006 13.081 21.9894 13.1918 21.9491C13.3026 21.9088 13.4046 21.8457 13.4918 21.7635C13.579 21.6813 13.6496 21.5816 13.6995 21.4703L14.6293 19.5219H19.4048L20.334 21.4703C20.3856 21.5786 20.4571 21.6752 20.5443 21.7546C20.6315 21.8339 20.7328 21.8945 20.8424 21.9328C20.9519 21.9711 21.0676 21.9864 21.1828 21.9779C21.298 21.9693 21.4104 21.937 21.5137 21.8829C21.617 21.8288 21.7092 21.7538 21.7848 21.6624C21.8605 21.5709 21.9183 21.4647 21.9548 21.3499C21.9914 21.235 22.006 21.1137 21.9978 20.993C21.9896 20.8722 21.9589 20.7543 21.9072 20.646ZM15.5087 17.678L17.0174 14.515L18.5255 17.678H15.5087Z" fill="#888888"/>
</svg>
