<svg width="24" height="24" viewBox="0 0 24 24" fill="none" xmlns="http://www.w3.org/2000/svg">
<path fill-rule="evenodd" clip-rule="evenodd" d="M0.415189 0.294069C0.594293 0.138474 0.8155 0.0394701 1.05085 0.00956863C1.28621 -0.0203328 1.52514 0.0202109 1.73746 0.126076L23.3353 10.9257C23.535 11.0252 23.703 11.1784 23.8204 11.3681C23.9378 11.5578 24 11.7765 24 11.9996C24 12.2227 23.9378 12.4414 23.8204 12.6311C23.703 12.8208 23.535 12.9741 23.3353 13.0736L1.73746 23.8732C1.52516 23.9794 1.28612 24.0203 1.05058 23.9906C0.815047 23.9609 0.593607 23.862 0.414281 23.7065C0.234956 23.5509 0.105806 23.3456 0.043173 23.1166C-0.01946 22.8876 -0.0127606 22.6452 0.0624235 22.42L3.13652 13.1996H9.60029C9.91852 13.1996 10.2237 13.0731 10.4487 12.8481C10.6738 12.6231 10.8002 12.3179 10.8002 11.9996C10.8002 11.6814 10.6738 11.3762 10.4487 11.1511C10.2237 10.9261 9.91852 10.7997 9.60029 10.7997H3.13652L0.0612234 1.57922C-0.0135733 1.35412 -0.0199828 1.1119 0.0428045 0.883166C0.105592 0.654427 0.235959 0.449429 0.415189 0.294069Z" fill="#046B40"/>
</svg>
