<svg width="62" height="68" viewBox="0 0 62 68" fill="none" xmlns="http://www.w3.org/2000/svg">
<g filter="url(#filter0_d_46_1104)">
<circle cx="34" cy="30" r="18" fill="white" fill-opacity="0.5" shape-rendering="crispEdges"/>
</g>
<path d="M35.5 19.5C35.5 19.944 35.307 20.343 35 20.618V22.5H40C40.7956 22.5 41.5587 22.8161 42.1213 23.3787C42.6839 23.9413 43 24.7044 43 25.5V35.5C43 36.2957 42.6839 37.0587 42.1213 37.6214C41.5587 38.184 40.7956 38.5 40 38.5H28C27.2044 38.5 26.4413 38.184 25.8787 37.6214C25.3161 37.0587 25 36.2957 25 35.5V25.5C25 24.7044 25.3161 23.9413 25.8787 23.3787C26.4413 22.8161 27.2044 22.5 28 22.5H33V20.618C32.8135 20.4512 32.6717 20.2404 32.5875 20.0048C32.5033 19.7692 32.4794 19.5162 32.5179 19.269C32.5564 19.0218 32.6562 18.7881 32.8081 18.5893C32.96 18.3905 33.1592 18.2328 33.3876 18.1307C33.6161 18.0285 33.8664 17.9852 34.1159 18.0045C34.3653 18.0238 34.606 18.1052 34.8159 18.2413C35.0259 18.3774 35.1985 18.5639 35.3179 18.7837C35.4374 19.0036 35.5 19.2498 35.5 19.5ZM22 27.5H24V33.5H22V27.5ZM46 27.5H44V33.5H46V27.5ZM31 32C31.3978 32 31.7794 31.842 32.0607 31.5607C32.342 31.2794 32.5 30.8979 32.5 30.5C32.5 30.1022 32.342 29.7207 32.0607 29.4394C31.7794 29.1581 31.3978 29 31 29C30.6022 29 30.2206 29.1581 29.9393 29.4394C29.658 29.7207 29.5 30.1022 29.5 30.5C29.5 30.8979 29.658 31.2794 29.9393 31.5607C30.2206 31.842 30.6022 32 31 32ZM38.5 30.5C38.5 30.1022 38.342 29.7207 38.0607 29.4394C37.7794 29.1581 37.3978 29 37 29C36.6022 29 36.2206 29.1581 35.9393 29.4394C35.658 29.7207 35.5 30.1022 35.5 30.5C35.5 30.8979 35.658 31.2794 35.9393 31.5607C36.2206 31.842 36.6022 32 37 32C37.3978 32 37.7794 31.842 38.0607 31.5607C38.342 31.2794 38.5 30.8979 38.5 30.5Z" fill="#046B40"/>
<defs>
<filter id="filter0_d_46_1104" x="0" y="0" width="68" height="68" filterUnits="userSpaceOnUse" color-interpolation-filters="sRGB">
<feFlood flood-opacity="0" result="BackgroundImageFix"/>
<feColorMatrix in="SourceAlpha" type="matrix" values="0 0 0 0 0 0 0 0 0 0 0 0 0 0 0 0 0 0 127 0" result="hardAlpha"/>
<feOffset dy="4"/>
<feGaussianBlur stdDeviation="8"/>
<feComposite in2="hardAlpha" operator="out"/>
<feColorMatrix type="matrix" values="0 0 0 0 0 0 0 0 0 0 0 0 0 0 0 0 0 0 0.25 0"/>
<feBlend mode="normal" in2="BackgroundImageFix" result="effect1_dropShadow_46_1104"/>
<feBlend mode="normal" in="SourceGraphic" in2="effect1_dropShadow_46_1104" result="shape"/>
</filter>
</defs>
</svg>
