<svg width="14" height="16" viewBox="0 0 14 16" fill="none" xmlns="http://www.w3.org/2000/svg">
<path fill-rule="evenodd" clip-rule="evenodd" d="M2.33333 4.8C2.33333 3.52696 2.825 2.30606 3.70017 1.40589C4.57534 0.505713 5.76232 0 7 0C8.23768 0 9.42466 0.505713 10.2998 1.40589C11.175 2.30606 11.6667 3.52696 11.6667 4.8H12.4444C12.857 4.8 13.2527 4.96857 13.5444 5.26863C13.8361 5.56869 14 5.97565 14 6.4V14.4C14 14.8243 13.8361 15.2313 13.5444 15.5314C13.2527 15.8314 12.857 16 12.4444 16H1.55556C1.143 16 0.747335 15.8314 0.455612 15.5314C0.163888 15.2313 0 14.8243 0 14.4V6.4C0 5.97565 0.163888 5.56869 0.455612 5.26863C0.747335 4.96857 1.143 4.8 1.55556 4.8H2.33333ZM7 1.6C7.82512 1.6 8.61644 1.93714 9.19989 2.53726C9.78333 3.13737 10.1111 3.95131 10.1111 4.8H3.88889C3.88889 3.95131 4.21667 3.13737 4.80011 2.53726C5.38356 1.93714 6.17488 1.6 7 1.6ZM8.55556 9.6C8.55555 9.88085 8.48367 10.1568 8.34714 10.4C8.21061 10.6432 8.01425 10.8452 7.77778 10.9856V12C7.77778 12.2122 7.69583 12.4157 7.54997 12.5657C7.40411 12.7157 7.20628 12.8 7 12.8C6.79372 12.8 6.59589 12.7157 6.45003 12.5657C6.30417 12.4157 6.22222 12.2122 6.22222 12V10.9856C5.92569 10.8095 5.69394 10.5376 5.56291 10.2123C5.43188 9.88686 5.40889 9.52608 5.49752 9.18588C5.58614 8.84568 5.78143 8.54507 6.05308 8.33066C6.32474 8.11624 6.65758 8.00002 7 8C7.41256 8 7.80822 8.16857 8.09994 8.46863C8.39167 8.76869 8.55556 9.17565 8.55556 9.6Z" fill="black"/>
</svg>
