<svg width="27" height="26" viewBox="0 0 27 26" fill="none" xmlns="http://www.w3.org/2000/svg">
<path d="M19.112 4.39929L22.1007 7.388M21.0334 1.76635L12.9481 9.85153C12.5304 10.2687 12.2455 10.8002 12.1293 11.3791L11.3825 15.1174L15.1209 14.3692C15.6997 14.2534 16.2305 13.9697 16.6484 13.5518L24.7337 5.46659C24.9766 5.22362 25.1694 4.93519 25.3009 4.61774C25.4323 4.3003 25.5 3.96006 25.5 3.61647C25.5 3.27287 25.4323 2.93263 25.3009 2.61519C25.1694 2.29774 24.9766 2.00931 24.7337 1.76635C24.4907 1.52338 24.2023 1.33066 23.8848 1.19917C23.5674 1.06768 23.2271 1 22.8835 1C22.5399 1 22.1997 1.06768 21.8822 1.19917C21.5648 1.33066 21.2764 1.52338 21.0334 1.76635Z" stroke="black" stroke-width="2" stroke-linecap="round" stroke-linejoin="round"/>
<path d="M22.6767 17.9409V22.1762C22.6767 22.9251 22.3792 23.6433 21.8497 24.1728C21.3202 24.7023 20.602 24.9998 19.8531 24.9998H4.32356C3.5747 24.9998 2.85652 24.7023 2.327 24.1728C1.79748 23.6433 1.5 22.9251 1.5 22.1762V6.64681C1.5 5.89796 1.79748 5.17978 2.327 4.65027C2.85652 4.12075 3.5747 3.82327 4.32356 3.82327H8.5589" stroke="black" stroke-width="2" stroke-linecap="round" stroke-linejoin="round"/>
</svg>
