<svg width="20" height="20" viewBox="0 0 20 20" fill="none" xmlns="http://www.w3.org/2000/svg">
<path d="M10 0C8.02219 0 6.08879 0.58649 4.4443 1.6853C2.79981 2.78412 1.51809 4.3459 0.761209 6.17316C0.00433286 8.00043 -0.1937 10.0111 0.192152 11.9509C0.578004 13.8907 1.53041 15.6725 2.92894 17.0711C4.32746 18.4696 6.10929 19.422 8.0491 19.8078C9.98891 20.1937 11.9996 19.9957 13.8268 19.2388C15.6541 18.4819 17.2159 17.2002 18.3147 15.5557C19.4135 13.9112 20 11.9778 20 10C19.9971 7.34874 18.9425 4.80691 17.0678 2.93218C15.1931 1.05745 12.6513 0.00294095 10 0ZM10 17.7778C8.4617 17.7778 6.95795 17.3216 5.6789 16.467C4.39985 15.6123 3.40296 14.3976 2.81427 12.9764C2.22559 11.5552 2.07157 9.99137 2.37167 8.48263C2.67178 6.97389 3.41254 5.58802 4.50028 4.50028C5.58803 3.41254 6.97389 2.67178 8.48263 2.37167C9.99137 2.07156 11.5552 2.22559 12.9764 2.81427C14.3976 3.40295 15.6124 4.39985 16.467 5.6789C17.3216 6.95795 17.7778 8.4617 17.7778 10C17.7756 12.0621 16.9554 14.0391 15.4973 15.4973C14.0391 16.9554 12.0621 17.7756 10 17.7778Z" fill="#D9D9D9"/>
</svg>
