<svg width="28" height="41" viewBox="0 0 28 41" fill="none" xmlns="http://www.w3.org/2000/svg">
<path d="M14 10C16.7625 10 19 7.7625 19 5C19 2.2375 16.7625 0 14 0C11.2375 0 9 2.2375 9 5C9 7.7625 11.2375 10 14 10ZM14 12.5C10.6625 12.5 4 14.175 4 17.5V18.75C4 19.4375 4.5625 20 5.25 20H22.75C23.4375 20 24 19.4375 24 18.75V17.5C24 14.175 17.3375 12.5 14 12.5Z" fill="#046B40"/>
<path d="M9.43457 34.8281V35.8633H1.2998V34.8281H9.43457ZM8.75098 28.793V29.7891H7.50098V32.4844H8.71191V33.4609H1.97363V32.4844H3.16504V29.7891H1.93457V28.793H8.75098ZM4.41504 32.4844H6.27051V29.7891H4.41504V32.4844ZM18.0771 34.8867V35.9121H9.94238V34.8867H13.3701V33.5488H10.8799V30.5605H15.9092V29.584H10.8701V28.5879H17.1396V31.5371H12.1299V32.5332H17.3447V33.5488H14.6104V34.8867H18.0771ZM26.0459 28.0117V32.5723H24.7959V28.0117H26.0459ZM26.0459 32.9238V35.2969H21.251V35.8535H26.29V36.8398H20.0205V34.4082H24.8154V33.8906H20.001V32.9238H26.0459ZM23.7998 28.5586V29.5059H23.0674V31.2734C23.4336 31.249 23.7949 31.2148 24.1416 31.1758L24.2002 32.0645C22.4326 32.3477 20.4111 32.3965 18.8682 32.3965L18.7314 31.4199L19.6885 31.4102V29.5059H18.9658V28.5586H23.7998ZM20.8799 31.3809L21.8662 31.3516V29.5059H20.8799V31.3809Z" fill="#046B40"/>
</svg>
