<svg width="32" height="38" viewBox="0 0 32 38" fill="none" xmlns="http://www.w3.org/2000/svg">
<path d="M16 10C18.7625 10 21 7.7625 21 5C21 2.2375 18.7625 0 16 0C13.2375 0 11 2.2375 11 5C11 7.7625 13.2375 10 16 10ZM16 12.5C12.6625 12.5 6 14.175 6 17.5V18.75C6 19.4375 6.5625 20 7.25 20H24.75C25.4375 20 26 19.4375 26 18.75V17.5C26 14.175 19.3375 12.5 16 12.5Z" fill="#888888"/>
<path d="M10.5215 33.5938V34.8359H0.759766V33.5938H10.5215ZM9.70117 26.3516V27.5469H8.20117V30.7812H9.6543V31.9531H1.56836V30.7812H2.99805V27.5469H1.52148V26.3516H9.70117ZM4.49805 30.7812H6.72461V27.5469H4.49805V30.7812ZM20.8926 33.6641V34.8945H11.1309V33.6641H15.2441V32.0586H12.2559V28.4727H18.291V27.3008H12.2441V26.1055H19.7676V29.6445H13.7559V30.8398H20.0137V32.0586H16.7324V33.6641H20.8926ZM30.4551 25.4141V30.8867H28.9551V25.4141H30.4551ZM30.4551 31.3086V34.1562H24.7012V34.8242H30.748V36.0078H23.2246V33.0898H28.9785V32.4688H23.2012V31.3086H30.4551ZM27.7598 26.0703V27.207H26.8809V29.3281C27.3203 29.2988 27.7539 29.2578 28.1699 29.2109L28.2402 30.2773C26.1191 30.6172 23.6934 30.6758 21.8418 30.6758L21.6777 29.5039L22.8262 29.4922V27.207H21.959V26.0703H27.7598ZM24.2559 29.457L25.4395 29.4219V27.207H24.2559V29.457Z" fill="#888888"/>
</svg>
