<svg width="24" height="24" viewBox="0 0 24 24" fill="none" xmlns="http://www.w3.org/2000/svg">
<rect width="24" height="24" fill="white"/>
<path d="M10.1357 2.89593C8.61538 2.89593 7.24561 3.31246 6.02642 4.14552C4.80724 4.97858 3.93267 6.07035 3.40271 7.42081C3.25792 7.7828 3.02287 8.05454 2.69756 8.23602C2.37225 8.4175 2.01605 8.47155 1.62896 8.39819C1.24284 8.32579 0.934902 8.139 0.705158 7.83783C0.475415 7.53665 0.421357 7.21665 0.542986 6.87783C1.19457 4.85068 2.38914 3.19759 4.1267 1.91855C5.86425 0.639517 7.86727 0 10.1357 0C11.5596 0 12.8932 0.271252 14.1365 0.813755C15.3798 1.35626 16.4595 2.09858 17.3756 3.04072V1.44796C17.3756 1.03771 17.5146 0.694057 17.7926 0.417014C18.0706 0.13997 18.4142 0.000965309 18.8235 0C19.2338 0 19.5779 0.139005 19.8559 0.417014C20.1339 0.695023 20.2725 1.03867 20.2715 1.44796V7.23982C20.2715 7.65007 20.1325 7.99421 19.8545 8.27222C19.5765 8.55023 19.2328 8.68875 18.8235 8.68778H13.0317C12.6214 8.68778 12.2778 8.54878 12.0007 8.27077C11.7237 7.99276 11.5847 7.64911 11.5837 7.23982C11.5837 6.82956 11.7227 6.48591 12.0007 6.20887C12.2787 5.93182 12.6224 5.79282 13.0317 5.79185H15.9276C15.2278 4.92308 14.3894 4.22323 13.4125 3.69231C12.4356 3.16139 11.3433 2.89593 10.1357 2.89593ZM10.1357 20.2715C8.71192 20.2715 7.37882 20.0002 6.13647 19.4577C4.89412 18.9152 3.81394 18.1729 2.89593 17.2308V18.8235C2.89593 19.2338 2.75692 19.5779 2.47891 19.8559C2.2009 20.1339 1.85725 20.2725 1.44796 20.2715C1.03771 20.2715 0.694057 20.1325 0.417014 19.8545C0.13997 19.5765 0.000965309 19.2328 0 18.8235V13.0317C0 12.6214 0.139005 12.2778 0.417014 12.0007C0.695023 11.7237 1.03867 11.5847 1.44796 11.5837H7.23982C7.65007 11.5837 7.99421 11.7227 8.27222 12.0007C8.55023 12.2787 8.68875 12.6224 8.68778 13.0317C8.68778 13.4419 8.54878 13.7861 8.27077 14.0641C7.99276 14.3421 7.64911 14.4806 7.23982 14.4796H4.34389C5.04374 15.3484 5.88259 16.0483 6.86045 16.5792C7.83831 17.1101 8.93007 17.3756 10.1357 17.3756C11.632 17.3756 12.9776 16.9774 14.1727 16.181C15.3677 15.3846 16.2423 14.3348 16.7964 13.0317C16.9653 12.6455 17.2129 12.3376 17.5392 12.1079C17.8655 11.8781 18.2332 11.7999 18.6425 11.8733C19.0528 11.9698 19.3544 12.187 19.5475 12.5249C19.7406 12.8627 19.7768 13.2247 19.6561 13.6109C19.4872 14.0935 19.2878 14.5462 19.0581 14.969C18.8284 15.3919 18.5571 15.8079 18.2443 16.2172L23.6018 21.5747C23.8673 21.8401 24 22.178 24 22.5882C24 22.9985 23.8673 23.3363 23.6018 23.6018C23.3363 23.8673 22.9985 24 22.5882 24C22.178 24 21.8401 23.8673 21.5747 23.6018L16.2172 18.2443C15.3484 18.8959 14.4014 19.3969 13.3763 19.7473C12.3511 20.0977 11.2709 20.2725 10.1357 20.2715Z" fill="#888888"/>
</svg>
