<svg width="21" height="38" viewBox="0 0 21 38" fill="none" xmlns="http://www.w3.org/2000/svg">
<rect width="20" height="20" transform="translate(1)" fill="white"/>
<path d="M9.44646 2.41327C8.17949 2.41327 7.03801 2.76038 6.02202 3.4546C5.00603 4.14882 4.27722 5.05862 3.8356 6.18401C3.71493 6.48567 3.51905 6.71212 3.24796 6.86335C2.97687 7.01458 2.68004 7.05963 2.35747 6.99849C2.0357 6.93816 1.77908 6.7825 1.58763 6.53152C1.39618 6.28054 1.35113 6.01388 1.45249 5.73152C1.99548 4.04223 2.99095 2.66466 4.43891 1.59879C5.88688 0.532931 7.55606 0 9.44646 0C10.633 0 11.7443 0.226043 12.7804 0.678129C13.8165 1.13022 14.7162 1.74882 15.4796 2.53394V1.20664C15.4796 0.864756 15.5955 0.578381 15.8271 0.347511C16.0588 0.116642 16.3452 0.000804424 16.6863 0C17.0282 0 17.3149 0.115837 17.5466 0.347511C17.7783 0.579186 17.8937 0.865561 17.8929 1.20664V6.03318C17.8929 6.37506 17.7771 6.66184 17.5454 6.89351C17.3137 7.12519 17.0273 7.24062 16.6863 7.23982H11.8597C11.5178 7.23982 11.2315 7.12398 11.0006 6.89231C10.7697 6.66063 10.6539 6.37426 10.6531 6.03318C10.6531 5.6913 10.7689 5.40493 11.0006 5.17406C11.2323 4.94319 11.5187 4.82735 11.8597 4.82655H14.273C13.6898 4.10256 12.9911 3.51936 12.1771 3.07692C11.363 2.63449 10.4528 2.41327 9.44646 2.41327ZM9.44646 16.8929C8.25993 16.8929 7.14902 16.6669 6.11373 16.2148C5.07843 15.7627 4.17828 15.1441 3.41327 14.359V15.6863C3.41327 16.0282 3.29744 16.3149 3.06576 16.5466C2.83409 16.7783 2.54771 16.8937 2.20664 16.8929C1.86476 16.8929 1.57838 16.7771 1.34751 16.5454C1.11664 16.3137 1.0008 16.0273 1 15.6863V10.8597C1 10.5178 1.11584 10.2315 1.34751 10.0006C1.57919 9.76973 1.86556 9.6539 2.20664 9.65309H7.03318C7.37506 9.65309 7.66184 9.76893 7.89351 10.0006C8.12519 10.2323 8.24062 10.5187 8.23982 10.8597C8.23982 11.2016 8.12398 11.4884 7.89231 11.7201C7.66063 11.9517 7.37426 12.0672 7.03318 12.0664H4.61991C5.20312 12.7903 5.90216 13.3736 6.71704 13.816C7.53193 14.2584 8.44173 14.4796 9.44646 14.4796C10.6933 14.4796 11.8147 14.1478 12.8106 13.4842C13.8064 12.8205 14.5352 11.9457 14.997 10.8597C15.1378 10.538 15.3441 10.2813 15.616 10.0899C15.8879 9.89844 16.1944 9.83328 16.5354 9.89442C16.8773 9.97486 17.1287 10.1559 17.2896 10.4374C17.4505 10.719 17.4806 11.0206 17.3801 11.3424C17.2393 11.7446 17.0732 12.1219 16.8817 12.4742C16.6903 12.8265 16.4643 13.1733 16.2036 13.5143L20.6682 17.9789C20.8894 18.2001 21 18.4816 21 18.8235C21 19.1654 20.8894 19.447 20.6682 19.6682C20.447 19.8894 20.1654 20 19.8235 20C19.4816 20 19.2001 19.8894 18.9789 19.6682L14.5143 15.2036C13.7903 15.7466 13.0012 16.1641 12.1469 16.4561C11.2926 16.7481 10.3925 16.8937 9.44646 16.8929Z" fill="#888888"/>
<path d="M9.375 25.4258V33.2188H7.875V25.4258H9.375ZM9.65625 34.6953V35.8906H2.22656V32.5273H3.73828V34.6953H9.65625ZM4.59375 27.8984C4.58203 29.0938 5.39062 30.2656 7.14844 30.7461L6.43359 31.918C5.20312 31.5781 4.35352 30.8691 3.86719 29.9609C3.38672 30.9512 2.51953 31.7363 1.25391 32.0938L0.539062 30.9336C2.29688 30.418 3.08203 29.1641 3.08203 27.8984V27.8164H0.902344V26.6562H3.08203V25.4727H4.60547V26.6562H6.77344V27.8164H4.59375V27.8984ZM19.4062 26.0352V26.9961C19.4062 27.9922 19.4062 29.082 19.1367 30.5703H20.543V31.7773H16.3828V36.0898H14.8828V31.7773H10.8164V30.5703H17.625C17.8945 29.1934 17.918 28.1504 17.918 27.2305H11.9297V26.0352H19.4062Z" fill="#888888"/>
</svg>
