<svg width="26" height="24" viewBox="0 0 26 24" fill="none" xmlns="http://www.w3.org/2000/svg">
<rect width="26" height="24" fill="white"/>
<path d="M7.54 14.9333V6.66667H2.6C1.17 6.66667 0 7.86667 0 9.33333V17.3333C0 18.8 1.17 20 2.6 20H3.9V24L7.8 20H14.3C15.73 20 16.9 18.8 16.9 17.3333V14.9067C16.8146 14.9255 16.7274 14.9349 16.64 14.9347H7.54V14.9333ZM23.4 0H11.7C10.27 0 9.1 1.2 9.1 2.66667V13.3333H18.2L22.1 17.3333V13.3333H23.4C24.83 13.3333 26 12.1347 26 10.6667V2.66667C26 1.2 24.83 0 23.4 0Z" fill="#888888"/>
</svg>
