<svg width="22" height="38" viewBox="0 0 22 38" fill="none" xmlns="http://www.w3.org/2000/svg">
<rect width="22" height="20" fill="white"/>
<path d="M6.38 12.4444V5.55556H2.2C0.99 5.55556 0 6.55556 0 7.77778V14.4444C0 15.6667 0.99 16.6667 2.2 16.6667H3.3V20L6.6 16.6667H12.1C13.31 16.6667 14.3 15.6667 14.3 14.4444V12.4222C14.2277 12.4379 14.1539 12.4457 14.08 12.4456H6.38V12.4444ZM19.8 0H9.9C8.69 0 7.7 1 7.7 2.22222V11.1111H15.4L18.7 14.4444V11.1111H19.8C21.01 11.1111 22 10.1122 22 8.88889V2.22222C22 1 21.01 0 19.8 0Z" fill="#046B40"/>
<path d="M3.77344 28.6367C3.77344 30.2422 4.34766 31.8711 5.88281 32.6797L5.05078 33.7812C4.08984 33.2891 3.45117 32.4277 3.08203 31.3789C2.70703 32.5215 2.06836 33.4766 1.10156 34.0273L0.257812 32.9023C1.76953 32.0352 2.35547 30.2891 2.36719 28.6367V28.4375H0.597656V27.2188H2.36719V25.7773H3.76172V27.2188H5.51953V28.4375H3.77344V28.6367ZM9.75 25.4141V36.0781H8.32031V30.7344H7.41797V35.5859H6V25.5664H7.41797V29.5156H8.32031V25.4141H9.75ZM16.5703 26.1523V27.3477H12.9023V28.1797H16.2539V29.3398H12.9023V30.1953C14.7773 30.1953 15.9668 30.1719 17.3203 29.9492L17.4727 31.1211C15.9492 31.3672 14.6016 31.4023 12.3164 31.3906H11.4023V26.1523H16.5703ZM19.7461 25.4258V31.8828H18.2461V25.4258H19.7461ZM16.1133 32.0234C18.3633 32.0234 19.793 32.7734 19.8047 34.0508C19.793 35.3398 18.3633 36.0781 16.1133 36.0781C13.8281 36.0781 12.4453 35.3398 12.4453 34.0508C12.4453 32.7734 13.8281 32.0234 16.1133 32.0234ZM16.1133 33.1836C14.6836 33.1836 13.9336 33.4766 13.9336 34.0508C13.9336 34.6367 14.6836 34.9414 16.1133 34.9414C17.5312 34.9414 18.3047 34.6367 18.3047 34.0508C18.3047 33.4766 17.5312 33.1836 16.1133 33.1836Z" fill="#046B40"/>
</svg>
