<svg width="32" height="32" viewBox="0 0 32 32" fill="none" xmlns="http://www.w3.org/2000/svg">
<path d="M27.5173 18.848L27.3853 17.5213L27.3413 17.5253L27.2987 17.5333L27.5173 18.848ZM27.5173 18.848L27.6507 20.1747L27.6947 20.1707L27.7373 20.164L27.5173 18.848ZM22.1307 26.1573L22.9747 25.1253L22.964 25.1173L22.1307 26.1573ZM22.1307 26.1573L21.2867 27.1893L21.2973 27.1987L22.1307 26.1573ZM9.86934 26.1573L9.02534 25.1267L9.00401 25.144L8.98401 25.1613L9.86934 26.1573ZM9.86934 26.1573L10.7133 27.1907L10.7347 27.1733L10.7547 27.1547L9.86934 26.1573ZM4.48134 13.152V11.8187H4.41467L4.34934 11.8253L4.48134 13.152ZM4.48134 13.152V14.4853H4.54801L4.61467 14.4787L4.48134 13.152ZM20.1747 4.34801C20.1524 4.09158 20.1208 3.8359 20.0827 3.58134C20.0411 3.30125 19.9556 3.02947 19.8293 2.77601L17.46 4.00001C17.4293 3.94001 17.436 3.91867 17.4533 4.02401C17.4733 4.14267 17.4907 4.30801 17.5213 4.61467L20.1747 4.34801ZM20.3013 5.61467C20.3853 5.72401 20.3573 5.77334 20.3107 5.51334C20.2667 5.26534 20.232 4.91734 20.1747 4.34801L17.52 4.61334C17.5733 5.13867 17.6187 5.61067 17.6867 5.98667C17.752 6.34667 17.8667 6.82001 18.18 7.23067L20.3013 5.61467ZM20.3013 5.61467L18.18 7.23067C18.4654 7.60514 18.8448 7.89738 19.2796 8.07771C19.7145 8.25803 20.1894 8.32001 20.656 8.25734L20.3013 5.61467ZM21.2853 4.80801C20.9865 5.06055 20.6792 5.30291 20.364 5.53467C20.1467 5.68534 20.164 5.63201 20.3013 5.61467L20.656 8.25734C21.168 8.18801 21.584 7.93467 21.8853 7.72401C22.1987 7.50801 22.5653 7.20667 22.9733 6.87201L21.2853 4.80801ZM22.64 3.94134C22.3718 4.03104 22.1194 4.16243 21.892 4.33067C21.7053 4.46401 21.496 4.63601 21.2853 4.80801L22.9733 6.87201C23.212 6.67734 23.3413 6.57201 23.44 6.50267C23.5267 6.44001 23.5147 6.46134 23.452 6.48134L22.64 3.94134ZM24.512 4.03467C23.9199 3.77807 23.2547 3.74491 22.64 3.94134L23.452 6.48134L24.512 4.03467ZM25.7733 5.03201C25.5939 4.84733 25.4085 4.66857 25.2173 4.49601C25.0075 4.30605 24.769 4.15036 24.5107 4.03467L23.452 6.48134C23.3907 6.45467 23.3813 6.43334 23.4613 6.50401C23.552 6.58401 23.6707 6.70001 23.888 6.91734L25.7733 5.03201ZM26.9653 6.22401L25.7733 5.03201L23.888 6.91734L25.08 8.10934L26.9653 6.22401ZM27.9627 7.48534C27.847 7.22701 27.6913 6.98852 27.5013 6.77867C27.3284 6.58832 27.1497 6.40334 26.9653 6.22401L25.08 8.11067C25.2973 8.32801 25.4133 8.44667 25.4933 8.53734C25.564 8.61734 25.5427 8.60801 25.516 8.54667L27.9627 7.48534ZM28.056 9.35734C28.2524 8.7426 28.2193 8.07749 27.9627 7.48534L25.516 8.54667L28.056 9.35734ZM27.1893 10.712C27.3553 10.5152 27.5145 10.3129 27.6667 10.1053C27.808 9.90801 27.96 9.66267 28.056 9.35734L25.516 8.54667C25.536 8.48401 25.556 8.47067 25.4947 8.55867C25.4253 8.65601 25.3213 8.78534 25.1253 9.02401L27.1893 10.712ZM26.3827 11.6973C26.3653 11.8347 26.312 11.8507 26.4627 11.6333C26.6053 11.4267 26.8267 11.1547 27.1893 10.712L25.1253 9.02401C24.792 9.43201 24.4893 9.79867 24.272 10.112C24.0627 10.4133 23.8093 10.8293 23.74 11.3413L26.3827 11.6973ZM26.3827 11.6973L23.74 11.3413C23.6773 11.8079 23.7393 12.2828 23.9196 12.7177C24.1 13.1526 24.3922 13.532 24.7667 13.8173L26.3827 11.6973ZM27.6493 11.824C27.2595 11.7914 26.8708 11.7456 26.484 11.6867C26.224 11.64 26.2733 11.6133 26.3827 11.6973L24.7667 13.8173C25.1773 14.1307 25.6493 14.2453 26.012 14.3107C26.3867 14.3773 26.8587 14.424 27.384 14.4773L27.6493 11.824ZM29.2213 12.168C28.9679 12.0418 28.6961 11.9563 28.416 11.9147C28.1615 11.8765 27.9058 11.8463 27.6493 11.824L27.384 14.4773C27.5814 14.4947 27.7784 14.517 27.9747 14.544C28.0813 14.5627 28.0587 14.5693 27.9987 14.5387L29.2213 12.168ZM30.4787 13.5587C30.2417 12.9582 29.795 12.4641 29.2213 12.168L28 14.5413L30.4787 13.5587ZM30.6653 15.156C30.6653 14.884 30.6653 14.6133 30.6507 14.384C30.6368 14.101 30.5783 13.822 30.4773 13.5573L28 14.5413C27.976 14.4787 27.984 14.4573 27.992 14.564C28 14.684 28 14.8507 28 15.1587L30.6653 15.156ZM30.6653 16.8413V15.156H27.9987V16.8413H30.6653ZM30.4787 18.4387C30.596 18.1413 30.6347 17.856 30.6507 17.612C30.6653 17.384 30.6653 17.1133 30.6653 16.8413H27.9987C27.9987 17.1493 27.9987 17.316 27.9907 17.436C27.9827 17.5427 27.9747 17.5213 27.9987 17.4587L30.4787 18.4387ZM29.2213 19.8293C29.795 19.5332 30.2417 19.0391 30.4787 18.4387L28 17.46L29.2213 19.8293ZM27.6493 20.1733C27.9213 20.1467 28.1893 20.12 28.416 20.0827C28.656 20.0427 28.936 19.976 29.2213 19.8293L28 17.46C28.0587 17.4293 28.0813 17.436 27.976 17.4533C27.7798 17.4817 27.5828 17.5044 27.3853 17.5213L27.6493 20.1733ZM26.384 20.3C26.2733 20.384 26.224 20.3573 26.484 20.3107C26.732 20.2667 27.08 20.2307 27.6493 20.1733L27.384 17.52C26.86 17.5733 26.3867 17.6187 26.012 17.6867C25.6507 17.752 25.1773 17.8667 24.7667 18.18L26.384 20.3ZM26.384 20.3L24.7667 18.18C24.3922 18.4654 24.1 18.8448 23.9196 19.2796C23.7393 19.7145 23.6773 20.1894 23.74 20.656L26.384 20.3ZM27.1893 21.284C26.9369 20.9856 26.6945 20.6787 26.4627 20.364C26.312 20.1467 26.3667 20.1627 26.384 20.3L23.74 20.656C23.8093 21.168 24.0627 21.584 24.2733 21.8853C24.4907 22.1987 24.792 22.5653 25.1253 22.9733L27.1893 21.284ZM28.056 22.6387C27.9662 22.3709 27.8348 22.1189 27.6667 21.892C27.5333 21.704 27.3613 21.496 27.1893 21.284L25.1253 22.9733C25.32 23.212 25.4253 23.34 25.4947 23.4387C25.5573 23.5253 25.5373 23.5147 25.516 23.452L28.056 22.6387ZM27.9627 24.512C28.2196 23.9195 28.2528 23.2538 28.056 22.6387L25.516 23.452L27.9627 24.512ZM26.9653 25.7733C27.1587 25.58 27.3493 25.3907 27.5013 25.2173C27.6613 25.0333 27.8347 24.8053 27.9627 24.5107L25.516 23.4507C25.5427 23.3893 25.564 23.3813 25.4933 23.4613C25.4133 23.552 25.2973 23.6693 25.08 23.888L26.9653 25.7733ZM25.7733 26.964L26.9653 25.7733L25.08 23.888L23.888 25.0787L25.7733 26.964ZM24.512 27.9627C24.7704 27.8466 25.0089 27.6904 25.2187 27.5C25.3907 27.3493 25.5813 27.1573 25.7733 26.964L23.888 25.0787C23.7497 25.2204 23.6074 25.3583 23.4613 25.492C23.3813 25.564 23.3907 25.5427 23.452 25.516L24.512 27.9627ZM22.64 28.056C23.2547 28.2524 23.9199 28.2193 24.512 27.9627L23.452 25.516L22.64 28.056ZM21.2853 27.1893C21.496 27.3613 21.704 27.5333 21.892 27.6667C22.0893 27.8067 22.3347 27.9587 22.64 28.056L23.452 25.516C23.5147 25.536 23.5267 25.556 23.4387 25.4947C23.2801 25.3761 23.1249 25.2529 22.9733 25.1253L21.2853 27.1893ZM20.3013 26.384C20.164 26.364 20.1467 26.3107 20.364 26.4613C20.5707 26.6053 20.8413 26.8253 21.284 27.188L22.9733 25.1253C22.5653 24.7907 22.1987 24.4893 21.8853 24.272C21.584 24.0613 21.168 23.8093 20.656 23.74L20.3013 26.384ZM20.3013 26.384L20.656 23.74C20.1894 23.6773 19.7145 23.7393 19.2796 23.9196C18.8448 24.1 18.4654 24.3922 18.18 24.7667L20.3013 26.384ZM20.1733 27.6493C20.2307 27.08 20.2667 26.7307 20.3107 26.484C20.3573 26.224 20.384 26.272 20.3 26.3827L18.18 24.7653C17.8667 25.176 17.752 25.6493 17.6867 26.0107C17.62 26.3867 17.5747 26.8587 17.5213 27.384L20.1733 27.6493ZM19.828 29.2213C19.9747 28.936 20.0413 28.656 20.0813 28.416C20.1213 28.1893 20.1453 27.9213 20.1733 27.6493L17.5213 27.384C17.5036 27.5819 17.4804 27.778 17.452 27.9747C17.4347 28.0813 17.428 28.0587 17.4587 27.9987L19.828 29.2213ZM18.44 30.4787C19.0395 30.2412 19.5326 29.7945 19.828 29.2213L17.46 28L18.44 30.4787ZM16.84 30.6653C17.1133 30.6653 17.384 30.6653 17.6133 30.6507C17.856 30.6347 18.1413 30.5987 18.44 30.4787L17.46 28C17.5227 27.976 17.544 27.984 17.4373 27.992C17.2392 28.0004 17.0409 28.003 16.8427 28L16.84 30.6653ZM15.156 30.6653H16.84L16.8413 27.9987H15.156V30.6653ZM13.5587 30.4787C13.856 30.596 14.1413 30.6347 14.3853 30.6507C14.6133 30.6653 14.884 30.6653 15.156 30.6653V27.9987C14.848 27.9987 14.6813 27.9987 14.5613 27.9907C14.4547 27.9827 14.476 27.9747 14.5387 27.9987L13.5587 30.4787ZM12.168 29.2213C12.4641 29.795 12.9582 30.2417 13.5587 30.4787L14.5387 27.9987L12.168 29.2213ZM11.824 27.6493C11.8507 27.9213 11.8773 28.1893 11.9147 28.416C11.9547 28.656 12.0213 28.936 12.168 29.2213L14.5413 28C14.572 28.0587 14.5653 28.0813 14.548 27.976C14.5196 27.7798 14.4969 27.5828 14.48 27.3853L11.824 27.6493ZM11.6973 26.3827C11.6133 26.2733 11.64 26.2227 11.6867 26.484C11.7307 26.7307 11.7667 27.08 11.824 27.6493L14.4773 27.384C14.424 26.8587 14.3787 26.3867 14.3107 26.0107C14.2453 25.6507 14.1307 25.1773 13.8173 24.7667L11.6973 26.3827ZM11.6973 26.3827L13.8173 24.7667C13.532 24.3922 13.1526 24.1 12.7177 23.9196C12.2828 23.7393 11.8079 23.6773 11.3413 23.74L11.6973 26.3827ZM10.712 27.1893C11.156 26.8267 11.4267 26.6053 11.6333 26.4627C11.8507 26.312 11.8347 26.3653 11.6973 26.3827L11.3413 23.74C10.8293 23.8093 10.4133 24.0627 10.112 24.2733C9.79867 24.4893 9.43201 24.7907 9.02401 25.1253L10.712 27.1893ZM9.35734 28.056C9.62557 27.9663 9.878 27.8349 10.1053 27.6667C10.292 27.5333 10.5013 27.3613 10.712 27.1893L9.02534 25.1267C8.87336 25.2542 8.71907 25.3774 8.56001 25.496C8.47334 25.5587 8.48534 25.5387 8.54801 25.5173L9.35734 28.056ZM7.48534 27.9627C8.07749 28.2193 8.7426 28.2524 9.35734 28.056L8.54534 25.516L7.48534 27.9627ZM6.22267 26.9653C6.41601 27.1587 6.60667 27.3493 6.78001 27.5013C6.96267 27.6613 7.19067 27.836 7.48667 27.964L8.54534 25.516C8.60667 25.5427 8.61601 25.564 8.53601 25.4933C8.38982 25.3597 8.24754 25.2219 8.10934 25.08L6.22267 26.9653ZM5.03201 25.7733L6.22401 26.9653L8.10934 25.08L6.91734 23.888L5.03201 25.7733ZM4.03467 24.512C4.16134 24.8053 4.33601 25.0347 4.49601 25.2187C4.64801 25.3907 4.83867 25.5813 5.03201 25.7733L6.91734 23.888C6.77549 23.7498 6.63766 23.6075 6.50401 23.4613C6.43334 23.3813 6.45467 23.3907 6.48134 23.452L4.03467 24.512ZM3.94134 22.64C3.74491 23.2547 3.77807 23.9199 4.03467 24.512L6.48134 23.452L3.94134 22.64ZM4.80801 21.2853C4.64209 21.4821 4.48288 21.6844 4.33067 21.892C4.16243 22.1194 4.03104 22.3718 3.94134 22.64L6.48134 23.452C6.46001 23.5147 6.44134 23.5267 6.50267 23.4387C6.57201 23.3413 6.67601 23.212 6.87201 22.9733L4.80801 21.2853ZM5.61334 20.3C5.63201 20.1627 5.68534 20.1467 5.53467 20.364C5.39201 20.5707 5.17067 20.8427 4.80801 21.2853L6.87201 22.9733C7.20534 22.5653 7.50801 22.1987 7.72534 21.8853C7.93467 21.584 8.18801 21.168 8.25734 20.656L5.61334 20.3ZM5.61334 20.3L8.25734 20.656C8.32001 20.1894 8.25803 19.7145 8.07771 19.2796C7.89738 18.8448 7.60514 18.4654 7.23067 18.18L5.61334 20.3ZM4.34667 20.1733C4.91734 20.2307 5.26667 20.2667 5.51334 20.3107C5.77334 20.3573 5.72401 20.384 5.61334 20.3L7.23067 18.18C6.82001 17.8667 6.34801 17.752 5.98534 17.6867C5.61067 17.62 5.13867 17.5733 4.61201 17.52L4.34667 20.1733ZM2.77601 19.8293C3.06134 19.976 3.34134 20.0427 3.58134 20.0827C3.80801 20.12 4.07601 20.148 4.34801 20.1747L4.61201 17.52C4.41451 17.5035 4.21888 17.4813 4.02267 17.4533C3.91601 17.4347 3.93867 17.428 3.99867 17.4587L2.77601 19.8293ZM1.52001 18.44C1.75698 19.0405 2.20372 19.5346 2.77734 19.8307L4.00001 17.46L1.52001 18.44ZM1.33334 16.8427C1.33334 17.1147 1.33334 17.3853 1.34801 17.6147C1.36401 17.8573 1.40134 18.1427 1.52134 18.4413L4.00001 17.4587C4.02401 17.5213 4.01601 17.5427 4.00934 17.436C4.00055 17.2384 3.99743 17.0405 4.00001 16.8427H1.33334ZM1.33334 15.1573V16.8427H4.00001V15.1573H1.33334ZM1.52001 13.5587C1.41957 13.8235 1.36152 14.1025 1.34801 14.3853C1.33201 14.6147 1.33334 14.8853 1.33334 15.1587H4.00001C4.00001 14.8493 4.00001 14.6827 4.00934 14.5627C4.01601 14.456 4.02401 14.4773 4.00001 14.54L1.52001 13.5587ZM2.77734 12.1707C2.2042 12.4661 1.75752 12.9592 1.52001 13.5587L4.00001 14.54L2.77734 12.1707ZM4.34934 11.824C4.07734 11.852 3.80934 11.8773 3.58267 11.9173C3.34267 11.9573 3.06267 12.024 2.77734 12.1707L4.00001 14.54C3.94001 14.5707 3.91867 14.564 4.02401 14.5467C4.22019 14.5183 4.41717 14.4956 4.61467 14.4787L4.34934 11.824ZM5.61601 11.6987C5.72667 11.6147 5.77601 11.6413 5.51467 11.688C5.26801 11.732 4.91867 11.768 4.34934 11.8253L4.61467 14.4787C5.13867 14.4253 5.61201 14.38 5.98801 14.312C6.34934 14.2467 6.82267 14.132 7.23334 13.8187L5.61601 11.6987ZM5.61601 11.6987L7.23334 13.8187C7.60756 13.5332 7.89954 13.1537 8.07963 12.7188C8.25972 12.284 8.32149 11.8092 8.25867 11.3427L5.61601 11.6987ZM4.80934 10.7133C5.17201 11.156 5.39334 11.428 5.53734 11.6347C5.68801 11.852 5.63467 11.836 5.61601 11.6987L8.25867 11.3427C8.18934 10.8307 7.93734 10.416 7.72667 10.1133C7.50934 9.80001 7.20667 9.43334 6.87334 9.02534L4.80934 10.7133ZM3.94267 9.35734C4.04001 9.66401 4.19067 9.90801 4.33201 10.1067C4.46534 10.2933 4.63734 10.5027 4.80934 10.7133L6.87334 9.02534C6.74577 8.87337 6.62261 8.71908 6.50401 8.56001C6.44134 8.47334 6.46267 8.48401 6.48267 8.54667L3.94267 9.35734ZM4.03601 7.48667C3.77973 8.07843 3.74657 8.74301 3.94267 9.35734L6.48267 8.54667L4.03601 7.48667ZM5.03334 6.22401C4.84001 6.41734 4.64934 6.60667 4.49734 6.78001C4.30738 6.98986 4.1517 7.22834 4.03601 7.48667L6.48267 8.54667C6.45601 8.60801 6.43467 8.61734 6.50534 8.53601C6.58534 8.44534 6.70134 8.32801 6.91867 8.10934L5.03334 6.22401ZM6.22534 5.03334L5.03334 6.22401L6.91867 8.10934L8.11201 6.91867L6.22534 5.03334ZM7.48667 4.03467C7.22825 4.15077 6.98976 4.30691 6.78001 4.49734C6.58965 4.67026 6.40468 4.84902 6.22534 5.03334L8.11201 6.91867C8.32934 6.70001 8.44667 6.58401 8.53734 6.50534C8.61734 6.43334 8.60801 6.45467 8.54667 6.48134L7.48667 4.03467ZM9.35867 3.94134C8.74394 3.74491 8.07882 3.77807 7.48667 4.03467L8.54667 6.48134L9.35867 3.94134ZM10.712 4.80801C10.5013 4.63601 10.2947 4.46534 10.1067 4.33201C9.87942 4.16329 9.62699 4.03145 9.35867 3.94134L8.54667 6.48134C8.48401 6.46134 8.47201 6.44134 8.56001 6.50267C8.65734 6.57334 8.78667 6.67734 9.02534 6.87334L10.712 4.80801ZM11.6987 5.61467C11.836 5.63334 11.852 5.68667 11.6347 5.53601C11.3199 5.30421 11.0131 5.06185 10.7147 4.80934L9.02534 6.87334C9.43334 7.20667 9.79867 7.50801 10.112 7.72667C10.4133 7.93601 10.8293 8.18801 11.3413 8.25734L11.6987 5.61467ZM11.6987 5.61467L11.3427 8.25734C11.8093 8.32001 12.2842 8.25803 12.719 8.07771C13.1539 7.89738 13.5333 7.60514 13.8187 7.23067L11.6987 5.61467ZM11.8253 4.34801C11.768 4.91867 11.732 5.26801 11.688 5.51467C11.6413 5.77467 11.6147 5.72534 11.6987 5.61467L13.8187 7.23067C14.132 6.82001 14.2467 6.34801 14.312 5.98667C14.3787 5.61201 14.4267 5.13867 14.4787 4.61334L11.8253 4.34801ZM12.1693 2.77734C12.0431 3.0308 11.9576 3.30258 11.916 3.58267C11.8787 3.80934 11.852 4.07734 11.8253 4.34934L14.4787 4.61334C14.4961 4.41594 14.5183 4.22032 14.5453 4.02401C14.564 3.91734 14.5707 3.94134 14.54 4.00001L12.1693 2.77734ZM13.56 1.52001C12.9595 1.75698 12.4654 2.20372 12.1693 2.77734L14.54 4.00001L13.56 1.52001ZM15.1573 1.33334C14.8853 1.33334 14.6147 1.33334 14.3853 1.34801C14.1025 1.36152 13.8235 1.41957 13.5587 1.52001L14.5413 4.00001C14.4787 4.02401 14.4573 4.01601 14.564 4.00934C14.684 4.00134 14.8507 4.00001 15.1587 4.00001L15.1573 1.33334ZM16.8427 1.33334H15.1573V4.00001H16.8427V1.33334ZM18.44 1.52001C18.1752 1.41957 17.8962 1.36152 17.6133 1.34801C17.3867 1.33201 17.116 1.33334 16.844 1.33334V4.00001C17.152 4.00001 17.3187 4.00001 17.4387 4.00934C17.5453 4.01601 17.5227 4.02401 17.46 4.00001L18.44 1.52001ZM19.8307 2.77734C19.5346 2.20372 19.0405 1.75698 18.44 1.52001L17.46 4.00001L19.8307 2.77734ZM20 16C20 17.0609 19.5786 18.0783 18.8284 18.8284C18.0783 19.5786 17.0609 20 16 20V22.6667C17.7681 22.6667 19.4638 21.9643 20.7141 20.7141C21.9643 19.4638 22.6667 17.7681 22.6667 16H20ZM16 12C17.0609 12 18.0783 12.4214 18.8284 13.1716C19.5786 13.9217 20 14.9391 20 16H22.6667C22.6667 14.2319 21.9643 12.5362 20.7141 11.286C19.4638 10.0357 17.7681 9.33334 16 9.33334V12ZM12 16C12 14.9391 12.4214 13.9217 13.1716 13.1716C13.9217 12.4214 14.9391 12 16 12V9.33334C14.2319 9.33334 12.5362 10.0357 11.286 11.286C10.0357 12.5362 9.33334 14.2319 9.33334 16H12ZM16 20C14.9391 20 13.9217 19.5786 13.1716 18.8284C12.4214 18.0783 12 17.0609 12 16H9.33334C9.33334 17.7681 10.0357 19.4638 11.286 20.7141C12.5362 21.9643 14.2319 22.6667 16 22.6667V20Z" fill="black"/>
</svg>
